<?xml version="1.0" encoding="utf-8"?>
<!-- Generator: Adobe Illustrator 19.1.0, SVG Export Plug-In . SVG Version: 6.00 Build 0)  -->
<svg version="1.1" id="Capa_1" xmlns="http://www.w3.org/2000/svg" xmlns:xlink="http://www.w3.org/1999/xlink" x="0px" y="0px"
	 viewBox="-372 174.4 213.6 213.6" style="enable-background:new -372 174.4 213.6 213.6;" xml:space="preserve">
<style type="text/css">
	.st0{fill:#FFFFFF;}
</style>
<path class="st0" d="M-213.7,242.8l-38,38c-1.7-3.2-3.8-6.2-6.5-8.9c-2.7-2.7-5.7-4.8-8.9-6.5l38-38c2.9,2.2,5.6,4.6,8.2,7.2
	C-218.3,237.1-215.9,239.9-213.7,242.8z M-298.2,311.8c3.9,3.9,9.1,6.1,14.7,6.1s10.8-2.2,14.7-6.1c8.1-8.1,8.1-21.3,0-29.4
	c-3.9-3.9-9.1-6.1-14.7-6.1c-5.6,0-10.8,2.2-14.7,6.1C-306.3,290.5-306.3,303.7-298.2,311.8z M-161.9,289
	C-161.9,289-162,288.9-161.9,289c-2.3-2.3-5.3-3.6-8.5-3.6c-3.2,0-6.1,1.2-8.4,3.5l-9.5,9.5l-0.1,0l24.6-57.4
	c1.2-2.8,0.6-6.1-1.6-8.3l-8.5-8.5l-73.9,73.9c-0.2,8.8-3.7,17.6-10.4,24.4c-6.8,6.8-15.7,10.5-25.3,10.5c-9.6,0-18.5-3.7-25.3-10.5
	c-13.9-13.9-13.9-36.6,0-50.6c6.5-6.5,15.2-10.2,24.4-10.5l73.9-73.9l-8.5-8.5c-2.2-2.2-5.4-2.8-8.3-1.6l-81.7,35
	c-7.6,2.3-14.9,5.6-21.7,9.9c-1.9,1.2-3.2,3.2-3.5,5.5c-0.2,1.8,0.3,3.6,1.3,5.1l-15,15c-1.5-1-3.3-1.5-5-1.3
	c-2.3,0.3-4.3,1.5-5.5,3.5c-10.5,16.7-15.2,36.8-13.1,56.5c2.1,20.1,11.1,39,25.4,53.2c16.7,16.7,38.9,25.9,62.6,25.9c0,0,0,0,0,0
	c16.8,0,33.1-4.7,47.2-13.6c1.9-1.2,3.2-3.2,3.5-5.5c0.2-1.8-0.3-3.6-1.3-5l15-15c1.5,1,3.3,1.5,5.1,1.3c2.3-0.3,4.3-1.5,5.5-3.5
	c3.7-5.8,6.6-12,8.8-18.4l13.9,0.5c0.1,0,0.2,0,0.3,0c2.1,0,4-0.9,5.4-2.3c0,0,0.1-0.1,0.1-0.1l18.3-18.3c2.2-2.2,3.5-5.2,3.5-8.4
	S-159.7,291.2-161.9,289z"/>
</svg>
