<?xml version="1.0" encoding="utf-8"?>
<!-- Generator: Adobe Illustrator 19.1.0, SVG Export Plug-In . SVG Version: 6.00 Build 0)  -->
<svg version="1.1" id="Capa_1" xmlns="http://www.w3.org/2000/svg" xmlns:xlink="http://www.w3.org/1999/xlink" x="0px" y="0px"
	 viewBox="-372 174.4 213.6 213.6" style="enable-background:new -372 174.4 213.6 213.6;" xml:space="preserve">
<style type="text/css">
	.st0{fill:#FFE81F;stroke:#000000;stroke-width:0.986;stroke-miterlimit:10;}
</style>
<path class="st0" d="M-214.1,243.1l-37.5,37.5c-1.7-3.2-3.7-6.1-6.4-8.8c-2.7-2.7-5.6-4.7-8.8-6.4l37.5-37.5
	c2.9,2.2,5.5,4.5,8.1,7.1C-218.7,237.5-216.3,240.2-214.1,243.1z M-297.4,311.1c3.8,3.8,9,6,14.5,6s10.6-2.2,14.5-6c8-8,8-21,0-29
	c-3.8-3.8-9-6-14.5-6s-10.6,2.2-14.5,6C-305.4,290.1-305.4,303.2-297.4,311.1z M-163,288.7C-163,288.7-163.1,288.6-163,288.7
	c-2.3-2.3-5.2-3.5-8.4-3.5s-6,1.2-8.3,3.5l-9.4,9.4h-0.1l24.3-56.6c1.2-2.8,0.6-6-1.6-8.2l-8.4-8.4l-72.9,72.9
	c-0.2,8.7-3.6,17.4-10.3,24.1c-6.7,6.7-15.5,10.4-24.9,10.4c-9.5,0-18.2-3.6-24.9-10.4c-13.7-13.7-13.7-36.1,0-49.9
	c6.4-6.4,15-10.1,24.1-10.4l72.9-72.9l-8.4-8.4c-2.2-2.2-5.3-2.8-8.2-1.6l-80.6,34.5c-7.5,2.3-14.7,5.5-21.4,9.8
	c-1.9,1.2-3.2,3.2-3.5,5.4c-0.2,1.8,0.3,3.5,1.3,5l-14.8,14.8c-1.5-1-3.3-1.5-4.9-1.3c-2.3,0.3-4.2,1.5-5.4,3.5
	c-10.4,16.5-15,36.3-12.9,55.7c2.1,19.8,10.9,38.5,25,52.5c16.5,16.5,38.4,25.5,61.7,25.5l0,0c16.6,0,32.6-4.6,46.5-13.4
	c1.9-1.2,3.2-3.2,3.5-5.4c0.2-1.8-0.3-3.5-1.3-4.9l14.8-14.8c1.5,1,3.3,1.5,5,1.3c2.3-0.3,4.2-1.5,5.4-3.5
	c3.6-5.7,6.5-11.8,8.7-18.1l13.7,0.5c0.1,0,0.2,0,0.3,0c2.1,0,3.9-0.9,5.3-2.3l0.1-0.1l18-18c2.2-2.2,3.5-5.1,3.5-8.3
	C-159.4,293.8-160.9,290.8-163,288.7z"/>
</svg>
