<?xml version="1.0" encoding="utf-8"?>
<!-- Generator: Adobe Illustrator 19.1.0, SVG Export Plug-In . SVG Version: 6.00 Build 0)  -->
<svg version="1.1" id="Capa_1" xmlns="http://www.w3.org/2000/svg" xmlns:xlink="http://www.w3.org/1999/xlink" x="0px" y="0px"
	 viewBox="-375 177.4 207.6 207.6" style="enable-background:new -375 177.4 207.6 207.6;" xml:space="preserve">
<style type="text/css">
	.st0{fill:#FFE81F;stroke:#000000;stroke-width:6;stroke-miterlimit:10;}
</style>
<path class="st0" d="M-168.4,236.3l-24.1-41.9c-2.1-3.6-6.6-4.8-10.2-2.8c-3.6,2.1-4.8,6.6-2.8,10.2l23.1,40.1v32.8h-48.4v-4.1
	c0-7.2-3.9-14-10.2-17.6l-20.1-11.6c-3.1-1.8-6.6-2.7-10.2-2.7c-3.6,0-7.1,0.9-10.2,2.7l-20.1,11.6c-6.3,3.6-10.2,10.4-10.2,17.6
	v4.1H-360V242l23.1-40.1c2.1-3.6,0.8-8.2-2.8-10.2c-3.6-2.1-8.2-0.8-10.2,2.8l-24.1,41.9c-0.7,1.1-1,2.4-1,3.7v41.2v41.2
	c0,1.3,0.3,2.6,1,3.7l24.1,41.9c1.4,2.4,3.9,3.8,6.5,3.8c1.3,0,2.6-0.3,3.7-1c3.6-2.1,4.8-6.6,2.8-10.2l-23.1-40.1v-30.5h16.8v9.8
	c0,4.1,3.4,7.5,7.5,7.5c4.1,0,7.5-3.4,7.5-7.5v-9.8h16.6v4.1c0,7.2,3.9,14,10.2,17.6l20.1,11.6c3.1,1.8,6.6,2.7,10.2,2.7
	c3.6,0,7.1-0.9,10.2-2.7l20.1-11.6c6.3-3.6,10.2-10.4,10.2-17.6v-4.1h16.6v9.8c0,4.1,3.4,7.5,7.5,7.5s7.5-3.4,7.5-7.5v-9.8h16.8
	v30.6l-23.1,40.1c-2.1,3.6-0.8,8.2,2.8,10.2c1.2,0.7,2.5,1,3.7,1c2.6,0,5.1-1.3,6.5-3.8l24.1-41.9c0.7-1.1,1-2.4,1-3.7v-41.2V240
	C-167.4,238.7-167.8,237.4-168.4,236.3z M-251.2,278.2H-291c-4.1,0-7.5-3.4-7.5-7.5c0-4.1,3.4-7.5,7.5-7.5h39.9
	c4.1,0,7.5,3.4,7.5,7.5C-243.7,274.9-247,278.2-251.2,278.2z"/>
</svg>
