<?xml version="1.0" encoding="utf-8"?>
<!-- Generator: Adobe Illustrator 19.1.0, SVG Export Plug-In . SVG Version: 6.00 Build 0)  -->
<svg version="1.1" id="Capa_1" xmlns="http://www.w3.org/2000/svg" xmlns:xlink="http://www.w3.org/1999/xlink" x="0px" y="0px"
	 viewBox="-372 174.4 213.6 213.6" style="enable-background:new -372 174.4 213.6 213.6;" xml:space="preserve">
<style type="text/css">
	.st0{stroke:#FFE81F;stroke-width:1.9752;stroke-miterlimit:10;}
</style>
<path class="st0" d="M-214.7,243.1l-37.5,37.5c-1.7-3.2-3.8-6.1-6.4-8.8c-2.7-2.7-5.6-4.7-8.8-6.4l37.5-37.5
	c2.9,2.2,5.5,4.5,8.1,7.1C-219.2,237.5-216.8,240.2-214.7,243.1z M-298.1,311.2c3.9,3.9,9,6,14.5,6c5.5,0,10.7-2.2,14.5-6
	c8-8,8-21,0-29c-3.9-3.9-9-6-14.5-6c-5.5,0-10.7,2.2-14.5,6C-306.1,290.2-306.1,303.2-298.1,311.2z M-163.5,288.7
	C-163.5,288.7-163.6,288.6-163.5,288.7c-2.3-2.3-5.2-3.6-8.4-3.6c-3.2,0-6,1.2-8.3,3.5l-9.4,9.4h-0.1l24.3-56.7
	c1.2-2.8,0.6-6-1.6-8.2l-8.4-8.4l-73,73c-0.2,8.7-3.7,17.4-10.3,24.1c-6.7,6.7-15.5,10.4-25,10.4s-18.3-3.7-25-10.4
	c-13.7-13.7-13.7-36.1,0-50c6.4-6.4,15-10.1,24.1-10.4l73-73l-8.4-8.4c-2.2-2.2-5.3-2.8-8.2-1.6l-80.7,34.6
	c-7.5,2.3-14.7,5.5-21.4,9.8c-1.9,1.2-3.2,3.2-3.5,5.4c-0.2,1.8,0.3,3.6,1.3,5l-14.8,14.8c-1.5-1-3.3-1.5-4.9-1.3
	c-2.3,0.3-4.2,1.5-5.4,3.5c-10.4,16.5-15,36.3-12.9,55.8c2.1,19.9,11,38.5,25.1,52.5c16.5,16.5,38.4,25.6,61.8,25.6l0,0
	c16.6,0,32.7-4.6,46.6-13.4c1.9-1.2,3.2-3.2,3.5-5.4c0.2-1.8-0.3-3.6-1.3-4.9l14.8-14.8c1.5,1,3.3,1.5,5,1.3
	c2.3-0.3,4.2-1.5,5.4-3.5c3.7-5.7,6.5-11.9,8.7-18.2l13.7,0.5c0.1,0,0.2,0,0.3,0c2.1,0,4-0.9,5.3-2.3l0.1-0.1l18.1-18.1
	c2.2-2.2,3.5-5.1,3.5-8.3C-159.9,293.9-161.3,290.9-163.5,288.7z"/>
</svg>
